<mxfile host="app.diagrams.net" agent="Mozilla/5.0 (X11; Linux x86_64) AppleWebKit/537.36 (KHTML, like Gecko) Chrome/125.0.0.0 Safari/537.36" version="24.7.16">
  <diagram name="第 1 页" id="GaObuayZV9ZZrY6aDF09">
    <mxGraphModel dx="1407" dy="705" grid="1" gridSize="10" guides="1" tooltips="1" connect="1" arrows="1" fold="1" page="1" pageScale="1" pageWidth="827" pageHeight="1169" math="0" shadow="0">
      <root>
        <mxCell id="0" />
        <mxCell id="1" parent="0" />
        <mxCell id="-r-d7jzyUZq8ZXCOeAmc-1" value="" style="group" vertex="1" connectable="0" parent="1">
          <mxGeometry x="130" y="1160" width="1000" height="600" as="geometry" />
        </mxCell>
        <mxCell id="-r-d7jzyUZq8ZXCOeAmc-2" value="" style="rounded=1;whiteSpace=wrap;html=1;arcSize=5;" vertex="1" parent="-r-d7jzyUZq8ZXCOeAmc-1">
          <mxGeometry width="1000" height="600" as="geometry" />
        </mxCell>
        <mxCell id="-r-d7jzyUZq8ZXCOeAmc-3" value="" style="rounded=0;whiteSpace=wrap;html=1;" vertex="1" parent="-r-d7jzyUZq8ZXCOeAmc-1">
          <mxGeometry x="130" y="189" width="200" height="201" as="geometry" />
        </mxCell>
        <mxCell id="-r-d7jzyUZq8ZXCOeAmc-4" style="edgeStyle=orthogonalEdgeStyle;rounded=0;orthogonalLoop=1;jettySize=auto;html=1;exitX=0.5;exitY=0;exitDx=0;exitDy=0;entryX=0.5;entryY=0;entryDx=0;entryDy=0;dashed=1;" edge="1" parent="-r-d7jzyUZq8ZXCOeAmc-1" source="-r-d7jzyUZq8ZXCOeAmc-5" target="-r-d7jzyUZq8ZXCOeAmc-84">
          <mxGeometry relative="1" as="geometry" />
        </mxCell>
        <mxCell id="-r-d7jzyUZq8ZXCOeAmc-5" value="W_q" style="rounded=0;whiteSpace=wrap;html=1;fillColor=#dae8fc;strokeColor=#6c8ebf;" vertex="1" parent="-r-d7jzyUZq8ZXCOeAmc-1">
          <mxGeometry x="710" y="459" width="70" height="71" as="geometry" />
        </mxCell>
        <mxCell id="-r-d7jzyUZq8ZXCOeAmc-6" style="edgeStyle=orthogonalEdgeStyle;rounded=0;orthogonalLoop=1;jettySize=auto;html=1;exitX=0.5;exitY=0;exitDx=0;exitDy=0;entryX=0.5;entryY=0;entryDx=0;entryDy=0;dashed=1;" edge="1" parent="-r-d7jzyUZq8ZXCOeAmc-1" source="-r-d7jzyUZq8ZXCOeAmc-7" target="-r-d7jzyUZq8ZXCOeAmc-85">
          <mxGeometry relative="1" as="geometry" />
        </mxCell>
        <mxCell id="-r-d7jzyUZq8ZXCOeAmc-7" value="W_k" style="rounded=0;whiteSpace=wrap;html=1;fillColor=#f8cecc;strokeColor=#b85450;" vertex="1" parent="-r-d7jzyUZq8ZXCOeAmc-1">
          <mxGeometry x="800" y="460" width="50" height="70" as="geometry" />
        </mxCell>
        <mxCell id="-r-d7jzyUZq8ZXCOeAmc-8" style="edgeStyle=orthogonalEdgeStyle;rounded=0;orthogonalLoop=1;jettySize=auto;html=1;exitX=0.5;exitY=0;exitDx=0;exitDy=0;entryX=0.5;entryY=0;entryDx=0;entryDy=0;dashed=1;" edge="1" parent="-r-d7jzyUZq8ZXCOeAmc-1" source="-r-d7jzyUZq8ZXCOeAmc-9" target="-r-d7jzyUZq8ZXCOeAmc-86">
          <mxGeometry relative="1" as="geometry" />
        </mxCell>
        <mxCell id="-r-d7jzyUZq8ZXCOeAmc-9" value="W_v" style="rounded=0;whiteSpace=wrap;html=1;fillColor=#d5e8d4;strokeColor=#82b366;" vertex="1" parent="-r-d7jzyUZq8ZXCOeAmc-1">
          <mxGeometry x="865" y="460" width="50" height="70" as="geometry" />
        </mxCell>
        <mxCell id="-r-d7jzyUZq8ZXCOeAmc-10" style="edgeStyle=orthogonalEdgeStyle;rounded=0;orthogonalLoop=1;jettySize=auto;html=1;exitX=0.5;exitY=0;exitDx=0;exitDy=0;entryX=0;entryY=0.5;entryDx=0;entryDy=0;" edge="1" parent="-r-d7jzyUZq8ZXCOeAmc-1" source="-r-d7jzyUZq8ZXCOeAmc-11" target="-r-d7jzyUZq8ZXCOeAmc-18">
          <mxGeometry relative="1" as="geometry" />
        </mxCell>
        <mxCell id="-r-d7jzyUZq8ZXCOeAmc-11" value="q1" style="rounded=0;whiteSpace=wrap;html=1;fillColor=#dae8fc;strokeColor=#6c8ebf;" vertex="1" parent="-r-d7jzyUZq8ZXCOeAmc-1">
          <mxGeometry x="150" y="349" width="40" height="30" as="geometry" />
        </mxCell>
        <mxCell id="-r-d7jzyUZq8ZXCOeAmc-12" style="edgeStyle=orthogonalEdgeStyle;rounded=0;orthogonalLoop=1;jettySize=auto;html=1;exitX=0.5;exitY=0;exitDx=0;exitDy=0;entryX=1;entryY=0.5;entryDx=0;entryDy=0;" edge="1" parent="-r-d7jzyUZq8ZXCOeAmc-1" source="-r-d7jzyUZq8ZXCOeAmc-13" target="-r-d7jzyUZq8ZXCOeAmc-18">
          <mxGeometry relative="1" as="geometry" />
        </mxCell>
        <mxCell id="-r-d7jzyUZq8ZXCOeAmc-13" value="k1" style="rounded=0;whiteSpace=wrap;html=1;fillColor=#f8cecc;strokeColor=#b85450;" vertex="1" parent="-r-d7jzyUZq8ZXCOeAmc-1">
          <mxGeometry x="210" y="349" width="40" height="30" as="geometry" />
        </mxCell>
        <mxCell id="-r-d7jzyUZq8ZXCOeAmc-14" style="edgeStyle=orthogonalEdgeStyle;rounded=0;orthogonalLoop=1;jettySize=auto;html=1;exitX=0.5;exitY=0;exitDx=0;exitDy=0;entryX=1;entryY=0.5;entryDx=0;entryDy=0;" edge="1" parent="-r-d7jzyUZq8ZXCOeAmc-1" source="-r-d7jzyUZq8ZXCOeAmc-15" target="-r-d7jzyUZq8ZXCOeAmc-22">
          <mxGeometry relative="1" as="geometry" />
        </mxCell>
        <mxCell id="-r-d7jzyUZq8ZXCOeAmc-15" value="v1" style="rounded=0;whiteSpace=wrap;html=1;fillColor=#d5e8d4;strokeColor=#82b366;" vertex="1" parent="-r-d7jzyUZq8ZXCOeAmc-1">
          <mxGeometry x="270" y="349" width="40" height="30" as="geometry" />
        </mxCell>
        <mxCell id="-r-d7jzyUZq8ZXCOeAmc-16" value="(batch_size,seq_len,dim_em)" style="text;html=1;align=center;verticalAlign=middle;whiteSpace=wrap;rounded=0;" vertex="1" parent="-r-d7jzyUZq8ZXCOeAmc-1">
          <mxGeometry x="410" y="560" width="60" height="30" as="geometry" />
        </mxCell>
        <mxCell id="-r-d7jzyUZq8ZXCOeAmc-17" style="edgeStyle=orthogonalEdgeStyle;rounded=0;orthogonalLoop=1;jettySize=auto;html=1;exitX=0.5;exitY=0;exitDx=0;exitDy=0;" edge="1" parent="-r-d7jzyUZq8ZXCOeAmc-1" source="-r-d7jzyUZq8ZXCOeAmc-18" target="-r-d7jzyUZq8ZXCOeAmc-20">
          <mxGeometry relative="1" as="geometry" />
        </mxCell>
        <mxCell id="-r-d7jzyUZq8ZXCOeAmc-18" value="" style="shape=sumEllipse;perimeter=ellipsePerimeter;whiteSpace=wrap;html=1;backgroundOutline=1;" vertex="1" parent="-r-d7jzyUZq8ZXCOeAmc-1">
          <mxGeometry x="190" y="299" width="20" height="20" as="geometry" />
        </mxCell>
        <mxCell id="-r-d7jzyUZq8ZXCOeAmc-19" style="edgeStyle=orthogonalEdgeStyle;rounded=0;orthogonalLoop=1;jettySize=auto;html=1;exitX=0.5;exitY=0;exitDx=0;exitDy=0;entryX=0;entryY=0.5;entryDx=0;entryDy=0;" edge="1" parent="-r-d7jzyUZq8ZXCOeAmc-1" source="-r-d7jzyUZq8ZXCOeAmc-20" target="-r-d7jzyUZq8ZXCOeAmc-22">
          <mxGeometry relative="1" as="geometry" />
        </mxCell>
        <mxCell id="-r-d7jzyUZq8ZXCOeAmc-20" value="softmax" style="rounded=1;whiteSpace=wrap;html=1;" vertex="1" parent="-r-d7jzyUZq8ZXCOeAmc-1">
          <mxGeometry x="185" y="249" width="90" height="20" as="geometry" />
        </mxCell>
        <mxCell id="-r-d7jzyUZq8ZXCOeAmc-21" style="edgeStyle=orthogonalEdgeStyle;rounded=0;orthogonalLoop=1;jettySize=auto;html=1;exitX=0.5;exitY=0;exitDx=0;exitDy=0;" edge="1" parent="-r-d7jzyUZq8ZXCOeAmc-1" source="-r-d7jzyUZq8ZXCOeAmc-22">
          <mxGeometry relative="1" as="geometry">
            <mxPoint x="260" y="169" as="targetPoint" />
          </mxGeometry>
        </mxCell>
        <mxCell id="-r-d7jzyUZq8ZXCOeAmc-22" value="" style="shape=sumEllipse;perimeter=ellipsePerimeter;whiteSpace=wrap;html=1;backgroundOutline=1;" vertex="1" parent="-r-d7jzyUZq8ZXCOeAmc-1">
          <mxGeometry x="250" y="199" width="20" height="20" as="geometry" />
        </mxCell>
        <mxCell id="-r-d7jzyUZq8ZXCOeAmc-23" style="edgeStyle=orthogonalEdgeStyle;rounded=0;orthogonalLoop=1;jettySize=auto;html=1;exitX=0.5;exitY=0;exitDx=0;exitDy=0;entryX=0.5;entryY=1;entryDx=0;entryDy=0;" edge="1" parent="-r-d7jzyUZq8ZXCOeAmc-1" source="-r-d7jzyUZq8ZXCOeAmc-24" target="-r-d7jzyUZq8ZXCOeAmc-55">
          <mxGeometry relative="1" as="geometry" />
        </mxCell>
        <mxCell id="-r-d7jzyUZq8ZXCOeAmc-24" value="O&lt;sub&gt;1&lt;/sub&gt;" style="rounded=0;whiteSpace=wrap;html=1;fillColor=#fad7ac;strokeColor=#b46504;" vertex="1" parent="-r-d7jzyUZq8ZXCOeAmc-1">
          <mxGeometry x="240" y="140" width="40" height="30" as="geometry" />
        </mxCell>
        <mxCell id="-r-d7jzyUZq8ZXCOeAmc-25" value="" style="group" vertex="1" connectable="0" parent="-r-d7jzyUZq8ZXCOeAmc-1">
          <mxGeometry x="340" y="140" width="200" height="300" as="geometry" />
        </mxCell>
        <mxCell id="-r-d7jzyUZq8ZXCOeAmc-26" value="" style="rounded=0;whiteSpace=wrap;html=1;" vertex="1" parent="-r-d7jzyUZq8ZXCOeAmc-25">
          <mxGeometry y="49" width="200" height="201" as="geometry" />
        </mxCell>
        <mxCell id="-r-d7jzyUZq8ZXCOeAmc-27" style="edgeStyle=orthogonalEdgeStyle;rounded=0;orthogonalLoop=1;jettySize=auto;html=1;exitX=0.5;exitY=0;exitDx=0;exitDy=0;entryX=0;entryY=0.5;entryDx=0;entryDy=0;" edge="1" parent="-r-d7jzyUZq8ZXCOeAmc-25" source="-r-d7jzyUZq8ZXCOeAmc-28" target="-r-d7jzyUZq8ZXCOeAmc-34">
          <mxGeometry relative="1" as="geometry" />
        </mxCell>
        <mxCell id="-r-d7jzyUZq8ZXCOeAmc-28" value="q2" style="rounded=0;whiteSpace=wrap;html=1;fillColor=#dae8fc;strokeColor=#6c8ebf;" vertex="1" parent="-r-d7jzyUZq8ZXCOeAmc-25">
          <mxGeometry x="20" y="210" width="40" height="30" as="geometry" />
        </mxCell>
        <mxCell id="-r-d7jzyUZq8ZXCOeAmc-29" style="edgeStyle=orthogonalEdgeStyle;rounded=0;orthogonalLoop=1;jettySize=auto;html=1;exitX=0.5;exitY=0;exitDx=0;exitDy=0;entryX=1;entryY=0.5;entryDx=0;entryDy=0;" edge="1" parent="-r-d7jzyUZq8ZXCOeAmc-25" source="-r-d7jzyUZq8ZXCOeAmc-30" target="-r-d7jzyUZq8ZXCOeAmc-34">
          <mxGeometry relative="1" as="geometry" />
        </mxCell>
        <mxCell id="-r-d7jzyUZq8ZXCOeAmc-30" value="k1" style="rounded=0;whiteSpace=wrap;html=1;fillColor=#f8cecc;strokeColor=#b85450;" vertex="1" parent="-r-d7jzyUZq8ZXCOeAmc-25">
          <mxGeometry x="80" y="210" width="40" height="30" as="geometry" />
        </mxCell>
        <mxCell id="-r-d7jzyUZq8ZXCOeAmc-31" style="edgeStyle=orthogonalEdgeStyle;rounded=0;orthogonalLoop=1;jettySize=auto;html=1;exitX=0.5;exitY=0;exitDx=0;exitDy=0;entryX=1;entryY=0.5;entryDx=0;entryDy=0;" edge="1" parent="-r-d7jzyUZq8ZXCOeAmc-25" source="-r-d7jzyUZq8ZXCOeAmc-32" target="-r-d7jzyUZq8ZXCOeAmc-38">
          <mxGeometry relative="1" as="geometry" />
        </mxCell>
        <mxCell id="-r-d7jzyUZq8ZXCOeAmc-32" value="v1" style="rounded=0;whiteSpace=wrap;html=1;fillColor=#d5e8d4;strokeColor=#82b366;" vertex="1" parent="-r-d7jzyUZq8ZXCOeAmc-25">
          <mxGeometry x="140" y="210" width="40" height="30" as="geometry" />
        </mxCell>
        <mxCell id="-r-d7jzyUZq8ZXCOeAmc-33" style="edgeStyle=orthogonalEdgeStyle;rounded=0;orthogonalLoop=1;jettySize=auto;html=1;exitX=0.5;exitY=0;exitDx=0;exitDy=0;" edge="1" parent="-r-d7jzyUZq8ZXCOeAmc-25" source="-r-d7jzyUZq8ZXCOeAmc-34" target="-r-d7jzyUZq8ZXCOeAmc-36">
          <mxGeometry relative="1" as="geometry" />
        </mxCell>
        <mxCell id="-r-d7jzyUZq8ZXCOeAmc-34" value="" style="shape=sumEllipse;perimeter=ellipsePerimeter;whiteSpace=wrap;html=1;backgroundOutline=1;" vertex="1" parent="-r-d7jzyUZq8ZXCOeAmc-25">
          <mxGeometry x="60" y="160" width="20" height="20" as="geometry" />
        </mxCell>
        <mxCell id="-r-d7jzyUZq8ZXCOeAmc-35" style="edgeStyle=orthogonalEdgeStyle;rounded=0;orthogonalLoop=1;jettySize=auto;html=1;exitX=0.5;exitY=0;exitDx=0;exitDy=0;entryX=0;entryY=0.5;entryDx=0;entryDy=0;" edge="1" parent="-r-d7jzyUZq8ZXCOeAmc-25" source="-r-d7jzyUZq8ZXCOeAmc-36" target="-r-d7jzyUZq8ZXCOeAmc-38">
          <mxGeometry relative="1" as="geometry" />
        </mxCell>
        <mxCell id="-r-d7jzyUZq8ZXCOeAmc-36" value="softmax" style="rounded=1;whiteSpace=wrap;html=1;" vertex="1" parent="-r-d7jzyUZq8ZXCOeAmc-25">
          <mxGeometry x="55" y="110" width="90" height="20" as="geometry" />
        </mxCell>
        <mxCell id="-r-d7jzyUZq8ZXCOeAmc-37" style="edgeStyle=orthogonalEdgeStyle;rounded=0;orthogonalLoop=1;jettySize=auto;html=1;exitX=0.5;exitY=0;exitDx=0;exitDy=0;" edge="1" parent="-r-d7jzyUZq8ZXCOeAmc-25" source="-r-d7jzyUZq8ZXCOeAmc-38">
          <mxGeometry relative="1" as="geometry">
            <mxPoint x="130" y="30" as="targetPoint" />
          </mxGeometry>
        </mxCell>
        <mxCell id="-r-d7jzyUZq8ZXCOeAmc-38" value="" style="shape=sumEllipse;perimeter=ellipsePerimeter;whiteSpace=wrap;html=1;backgroundOutline=1;" vertex="1" parent="-r-d7jzyUZq8ZXCOeAmc-25">
          <mxGeometry x="120" y="60" width="20" height="20" as="geometry" />
        </mxCell>
        <mxCell id="-r-d7jzyUZq8ZXCOeAmc-39" value="O&lt;sub&gt;2&lt;/sub&gt;" style="rounded=0;whiteSpace=wrap;html=1;fillColor=#fad7ac;strokeColor=#b46504;" vertex="1" parent="-r-d7jzyUZq8ZXCOeAmc-25">
          <mxGeometry x="110" width="40" height="30" as="geometry" />
        </mxCell>
        <mxCell id="-r-d7jzyUZq8ZXCOeAmc-40" value="" style="group" vertex="1" connectable="0" parent="-r-d7jzyUZq8ZXCOeAmc-1">
          <mxGeometry x="550" y="140" width="200" height="300" as="geometry" />
        </mxCell>
        <mxCell id="-r-d7jzyUZq8ZXCOeAmc-41" value="" style="rounded=0;whiteSpace=wrap;html=1;" vertex="1" parent="-r-d7jzyUZq8ZXCOeAmc-40">
          <mxGeometry y="49" width="200" height="201" as="geometry" />
        </mxCell>
        <mxCell id="-r-d7jzyUZq8ZXCOeAmc-42" style="edgeStyle=orthogonalEdgeStyle;rounded=0;orthogonalLoop=1;jettySize=auto;html=1;exitX=0.5;exitY=0;exitDx=0;exitDy=0;entryX=0;entryY=0.5;entryDx=0;entryDy=0;" edge="1" parent="-r-d7jzyUZq8ZXCOeAmc-40" source="-r-d7jzyUZq8ZXCOeAmc-43" target="-r-d7jzyUZq8ZXCOeAmc-49">
          <mxGeometry relative="1" as="geometry" />
        </mxCell>
        <mxCell id="-r-d7jzyUZq8ZXCOeAmc-43" value="q3" style="rounded=0;whiteSpace=wrap;html=1;fillColor=#dae8fc;strokeColor=#6c8ebf;" vertex="1" parent="-r-d7jzyUZq8ZXCOeAmc-40">
          <mxGeometry x="20" y="210" width="40" height="30" as="geometry" />
        </mxCell>
        <mxCell id="-r-d7jzyUZq8ZXCOeAmc-44" style="edgeStyle=orthogonalEdgeStyle;rounded=0;orthogonalLoop=1;jettySize=auto;html=1;exitX=0.5;exitY=0;exitDx=0;exitDy=0;entryX=1;entryY=0.5;entryDx=0;entryDy=0;" edge="1" parent="-r-d7jzyUZq8ZXCOeAmc-40" source="-r-d7jzyUZq8ZXCOeAmc-45" target="-r-d7jzyUZq8ZXCOeAmc-49">
          <mxGeometry relative="1" as="geometry" />
        </mxCell>
        <mxCell id="-r-d7jzyUZq8ZXCOeAmc-45" value="k2" style="rounded=0;whiteSpace=wrap;html=1;fillColor=#f8cecc;strokeColor=#b85450;" vertex="1" parent="-r-d7jzyUZq8ZXCOeAmc-40">
          <mxGeometry x="80" y="210" width="40" height="30" as="geometry" />
        </mxCell>
        <mxCell id="-r-d7jzyUZq8ZXCOeAmc-46" style="edgeStyle=orthogonalEdgeStyle;rounded=0;orthogonalLoop=1;jettySize=auto;html=1;exitX=0.5;exitY=0;exitDx=0;exitDy=0;entryX=1;entryY=0.5;entryDx=0;entryDy=0;" edge="1" parent="-r-d7jzyUZq8ZXCOeAmc-40" source="-r-d7jzyUZq8ZXCOeAmc-47" target="-r-d7jzyUZq8ZXCOeAmc-53">
          <mxGeometry relative="1" as="geometry" />
        </mxCell>
        <mxCell id="-r-d7jzyUZq8ZXCOeAmc-47" value="v2" style="rounded=0;whiteSpace=wrap;html=1;fillColor=#d5e8d4;strokeColor=#82b366;" vertex="1" parent="-r-d7jzyUZq8ZXCOeAmc-40">
          <mxGeometry x="140" y="210" width="40" height="30" as="geometry" />
        </mxCell>
        <mxCell id="-r-d7jzyUZq8ZXCOeAmc-48" style="edgeStyle=orthogonalEdgeStyle;rounded=0;orthogonalLoop=1;jettySize=auto;html=1;exitX=0.5;exitY=0;exitDx=0;exitDy=0;" edge="1" parent="-r-d7jzyUZq8ZXCOeAmc-40" source="-r-d7jzyUZq8ZXCOeAmc-49" target="-r-d7jzyUZq8ZXCOeAmc-51">
          <mxGeometry relative="1" as="geometry" />
        </mxCell>
        <mxCell id="-r-d7jzyUZq8ZXCOeAmc-49" value="" style="shape=sumEllipse;perimeter=ellipsePerimeter;whiteSpace=wrap;html=1;backgroundOutline=1;" vertex="1" parent="-r-d7jzyUZq8ZXCOeAmc-40">
          <mxGeometry x="60" y="160" width="20" height="20" as="geometry" />
        </mxCell>
        <mxCell id="-r-d7jzyUZq8ZXCOeAmc-50" style="edgeStyle=orthogonalEdgeStyle;rounded=0;orthogonalLoop=1;jettySize=auto;html=1;exitX=0.5;exitY=0;exitDx=0;exitDy=0;entryX=0;entryY=0.5;entryDx=0;entryDy=0;" edge="1" parent="-r-d7jzyUZq8ZXCOeAmc-40" source="-r-d7jzyUZq8ZXCOeAmc-51" target="-r-d7jzyUZq8ZXCOeAmc-53">
          <mxGeometry relative="1" as="geometry" />
        </mxCell>
        <mxCell id="-r-d7jzyUZq8ZXCOeAmc-51" value="softmax" style="rounded=1;whiteSpace=wrap;html=1;" vertex="1" parent="-r-d7jzyUZq8ZXCOeAmc-40">
          <mxGeometry x="55" y="110" width="90" height="20" as="geometry" />
        </mxCell>
        <mxCell id="-r-d7jzyUZq8ZXCOeAmc-52" style="edgeStyle=orthogonalEdgeStyle;rounded=0;orthogonalLoop=1;jettySize=auto;html=1;exitX=0.5;exitY=0;exitDx=0;exitDy=0;" edge="1" parent="-r-d7jzyUZq8ZXCOeAmc-40" source="-r-d7jzyUZq8ZXCOeAmc-53">
          <mxGeometry relative="1" as="geometry">
            <mxPoint x="130" y="30" as="targetPoint" />
          </mxGeometry>
        </mxCell>
        <mxCell id="-r-d7jzyUZq8ZXCOeAmc-53" value="" style="shape=sumEllipse;perimeter=ellipsePerimeter;whiteSpace=wrap;html=1;backgroundOutline=1;" vertex="1" parent="-r-d7jzyUZq8ZXCOeAmc-40">
          <mxGeometry x="120" y="60" width="20" height="20" as="geometry" />
        </mxCell>
        <mxCell id="-r-d7jzyUZq8ZXCOeAmc-54" value="O&lt;sub&gt;3&lt;/sub&gt;" style="rounded=0;whiteSpace=wrap;html=1;fillColor=#fad7ac;strokeColor=#b46504;" vertex="1" parent="-r-d7jzyUZq8ZXCOeAmc-40">
          <mxGeometry x="110" width="40" height="30" as="geometry" />
        </mxCell>
        <mxCell id="-r-d7jzyUZq8ZXCOeAmc-55" value="O" style="rounded=0;whiteSpace=wrap;html=1;fillColor=#fad7ac;strokeColor=#b46504;" vertex="1" parent="-r-d7jzyUZq8ZXCOeAmc-1">
          <mxGeometry x="450" y="70" width="210" height="30" as="geometry" />
        </mxCell>
        <mxCell id="-r-d7jzyUZq8ZXCOeAmc-56" value="" style="group" vertex="1" connectable="0" parent="-r-d7jzyUZq8ZXCOeAmc-1">
          <mxGeometry x="760" y="140" width="200" height="300" as="geometry" />
        </mxCell>
        <mxCell id="-r-d7jzyUZq8ZXCOeAmc-57" value="" style="rounded=0;whiteSpace=wrap;html=1;" vertex="1" parent="-r-d7jzyUZq8ZXCOeAmc-56">
          <mxGeometry y="49" width="200" height="201" as="geometry" />
        </mxCell>
        <mxCell id="-r-d7jzyUZq8ZXCOeAmc-58" style="edgeStyle=orthogonalEdgeStyle;rounded=0;orthogonalLoop=1;jettySize=auto;html=1;exitX=0.5;exitY=0;exitDx=0;exitDy=0;entryX=0;entryY=0.5;entryDx=0;entryDy=0;" edge="1" parent="-r-d7jzyUZq8ZXCOeAmc-56" source="-r-d7jzyUZq8ZXCOeAmc-59" target="-r-d7jzyUZq8ZXCOeAmc-65">
          <mxGeometry relative="1" as="geometry" />
        </mxCell>
        <mxCell id="-r-d7jzyUZq8ZXCOeAmc-59" value="q4" style="rounded=0;whiteSpace=wrap;html=1;fillColor=#dae8fc;strokeColor=#6c8ebf;" vertex="1" parent="-r-d7jzyUZq8ZXCOeAmc-56">
          <mxGeometry x="20" y="210" width="40" height="30" as="geometry" />
        </mxCell>
        <mxCell id="-r-d7jzyUZq8ZXCOeAmc-60" style="edgeStyle=orthogonalEdgeStyle;rounded=0;orthogonalLoop=1;jettySize=auto;html=1;exitX=0.5;exitY=0;exitDx=0;exitDy=0;entryX=1;entryY=0.5;entryDx=0;entryDy=0;" edge="1" parent="-r-d7jzyUZq8ZXCOeAmc-56" source="-r-d7jzyUZq8ZXCOeAmc-61" target="-r-d7jzyUZq8ZXCOeAmc-65">
          <mxGeometry relative="1" as="geometry" />
        </mxCell>
        <mxCell id="-r-d7jzyUZq8ZXCOeAmc-61" value="k2" style="rounded=0;whiteSpace=wrap;html=1;fillColor=#f8cecc;strokeColor=#b85450;" vertex="1" parent="-r-d7jzyUZq8ZXCOeAmc-56">
          <mxGeometry x="80" y="210" width="40" height="30" as="geometry" />
        </mxCell>
        <mxCell id="-r-d7jzyUZq8ZXCOeAmc-62" style="edgeStyle=orthogonalEdgeStyle;rounded=0;orthogonalLoop=1;jettySize=auto;html=1;exitX=0.5;exitY=0;exitDx=0;exitDy=0;entryX=1;entryY=0.5;entryDx=0;entryDy=0;" edge="1" parent="-r-d7jzyUZq8ZXCOeAmc-56" source="-r-d7jzyUZq8ZXCOeAmc-63" target="-r-d7jzyUZq8ZXCOeAmc-69">
          <mxGeometry relative="1" as="geometry" />
        </mxCell>
        <mxCell id="-r-d7jzyUZq8ZXCOeAmc-63" value="v2" style="rounded=0;whiteSpace=wrap;html=1;fillColor=#d5e8d4;strokeColor=#82b366;" vertex="1" parent="-r-d7jzyUZq8ZXCOeAmc-56">
          <mxGeometry x="140" y="210" width="40" height="30" as="geometry" />
        </mxCell>
        <mxCell id="-r-d7jzyUZq8ZXCOeAmc-64" style="edgeStyle=orthogonalEdgeStyle;rounded=0;orthogonalLoop=1;jettySize=auto;html=1;exitX=0.5;exitY=0;exitDx=0;exitDy=0;" edge="1" parent="-r-d7jzyUZq8ZXCOeAmc-56" source="-r-d7jzyUZq8ZXCOeAmc-65" target="-r-d7jzyUZq8ZXCOeAmc-67">
          <mxGeometry relative="1" as="geometry" />
        </mxCell>
        <mxCell id="-r-d7jzyUZq8ZXCOeAmc-65" value="" style="shape=sumEllipse;perimeter=ellipsePerimeter;whiteSpace=wrap;html=1;backgroundOutline=1;" vertex="1" parent="-r-d7jzyUZq8ZXCOeAmc-56">
          <mxGeometry x="60" y="160" width="20" height="20" as="geometry" />
        </mxCell>
        <mxCell id="-r-d7jzyUZq8ZXCOeAmc-66" style="edgeStyle=orthogonalEdgeStyle;rounded=0;orthogonalLoop=1;jettySize=auto;html=1;exitX=0.5;exitY=0;exitDx=0;exitDy=0;entryX=0;entryY=0.5;entryDx=0;entryDy=0;" edge="1" parent="-r-d7jzyUZq8ZXCOeAmc-56" source="-r-d7jzyUZq8ZXCOeAmc-67" target="-r-d7jzyUZq8ZXCOeAmc-69">
          <mxGeometry relative="1" as="geometry" />
        </mxCell>
        <mxCell id="-r-d7jzyUZq8ZXCOeAmc-67" value="softmax" style="rounded=1;whiteSpace=wrap;html=1;" vertex="1" parent="-r-d7jzyUZq8ZXCOeAmc-56">
          <mxGeometry x="55" y="110" width="90" height="20" as="geometry" />
        </mxCell>
        <mxCell id="-r-d7jzyUZq8ZXCOeAmc-68" style="edgeStyle=orthogonalEdgeStyle;rounded=0;orthogonalLoop=1;jettySize=auto;html=1;exitX=0.5;exitY=0;exitDx=0;exitDy=0;" edge="1" parent="-r-d7jzyUZq8ZXCOeAmc-56" source="-r-d7jzyUZq8ZXCOeAmc-69">
          <mxGeometry relative="1" as="geometry">
            <mxPoint x="130" y="30" as="targetPoint" />
          </mxGeometry>
        </mxCell>
        <mxCell id="-r-d7jzyUZq8ZXCOeAmc-69" value="" style="shape=sumEllipse;perimeter=ellipsePerimeter;whiteSpace=wrap;html=1;backgroundOutline=1;" vertex="1" parent="-r-d7jzyUZq8ZXCOeAmc-56">
          <mxGeometry x="120" y="60" width="20" height="20" as="geometry" />
        </mxCell>
        <mxCell id="-r-d7jzyUZq8ZXCOeAmc-70" value="O&lt;span style=&quot;font-size: 10px;&quot;&gt;4&lt;/span&gt;" style="rounded=0;whiteSpace=wrap;html=1;fillColor=#fad7ac;strokeColor=#b46504;" vertex="1" parent="-r-d7jzyUZq8ZXCOeAmc-56">
          <mxGeometry x="110" width="40" height="30" as="geometry" />
        </mxCell>
        <mxCell id="-r-d7jzyUZq8ZXCOeAmc-71" style="edgeStyle=orthogonalEdgeStyle;rounded=0;orthogonalLoop=1;jettySize=auto;html=1;exitX=1;exitY=0.5;exitDx=0;exitDy=0;entryX=0.5;entryY=1;entryDx=0;entryDy=0;dashed=1;" edge="1" parent="-r-d7jzyUZq8ZXCOeAmc-1" source="-r-d7jzyUZq8ZXCOeAmc-74" target="-r-d7jzyUZq8ZXCOeAmc-7">
          <mxGeometry relative="1" as="geometry" />
        </mxCell>
        <mxCell id="-r-d7jzyUZq8ZXCOeAmc-72" style="edgeStyle=orthogonalEdgeStyle;rounded=0;orthogonalLoop=1;jettySize=auto;html=1;exitX=1;exitY=0.5;exitDx=0;exitDy=0;dashed=1;" edge="1" parent="-r-d7jzyUZq8ZXCOeAmc-1" source="-r-d7jzyUZq8ZXCOeAmc-74" target="-r-d7jzyUZq8ZXCOeAmc-9">
          <mxGeometry relative="1" as="geometry" />
        </mxCell>
        <mxCell id="-r-d7jzyUZq8ZXCOeAmc-73" style="edgeStyle=orthogonalEdgeStyle;rounded=0;orthogonalLoop=1;jettySize=auto;html=1;exitX=1;exitY=0.5;exitDx=0;exitDy=0;dashed=1;" edge="1" parent="-r-d7jzyUZq8ZXCOeAmc-1" source="-r-d7jzyUZq8ZXCOeAmc-74" target="-r-d7jzyUZq8ZXCOeAmc-5">
          <mxGeometry relative="1" as="geometry" />
        </mxCell>
        <mxCell id="-r-d7jzyUZq8ZXCOeAmc-74" value="Input" style="rounded=0;whiteSpace=wrap;html=1;fillColor=#b0e3e6;strokeColor=#0e8088;" vertex="1" parent="-r-d7jzyUZq8ZXCOeAmc-1">
          <mxGeometry x="329" y="536" width="210" height="30" as="geometry" />
        </mxCell>
        <mxCell id="-r-d7jzyUZq8ZXCOeAmc-75" value="&lt;div&gt;&lt;b&gt;&lt;i&gt;num_heads = 4&lt;/i&gt;&lt;/b&gt;&lt;/div&gt;&lt;div&gt;&lt;b&gt;&lt;i&gt;group_size = 2&lt;/i&gt;&lt;/b&gt;&lt;/div&gt;" style="text;html=1;align=center;verticalAlign=middle;whiteSpace=wrap;rounded=0;" vertex="1" parent="-r-d7jzyUZq8ZXCOeAmc-1">
          <mxGeometry x="18.75" y="15" width="165" height="30" as="geometry" />
        </mxCell>
        <mxCell id="-r-d7jzyUZq8ZXCOeAmc-76" value="(bs,seq_len,dim_q)" style="text;html=1;align=center;verticalAlign=middle;whiteSpace=wrap;rounded=0;" vertex="1" parent="-r-d7jzyUZq8ZXCOeAmc-1">
          <mxGeometry x="40" y="349" width="60" height="30" as="geometry" />
        </mxCell>
        <mxCell id="-r-d7jzyUZq8ZXCOeAmc-77" value="(bs,seq_len,dim_v)" style="text;html=1;align=center;verticalAlign=middle;whiteSpace=wrap;rounded=0;" vertex="1" parent="-r-d7jzyUZq8ZXCOeAmc-1">
          <mxGeometry x="82.5" y="140" width="120" height="30" as="geometry" />
        </mxCell>
        <mxCell id="-r-d7jzyUZq8ZXCOeAmc-78" value="(batch_size,seq_len,dim_v*num_heads)" style="text;html=1;align=center;verticalAlign=middle;whiteSpace=wrap;rounded=0;" vertex="1" parent="-r-d7jzyUZq8ZXCOeAmc-1">
          <mxGeometry x="530" y="45" width="60" height="30" as="geometry" />
        </mxCell>
        <mxCell id="-r-d7jzyUZq8ZXCOeAmc-79" value="&lt;b&gt;&lt;font style=&quot;font-size: 16px;&quot;&gt;GQA(Grouped-query Attention)&lt;/font&gt;&lt;/b&gt;" style="text;html=1;align=center;verticalAlign=middle;whiteSpace=wrap;rounded=0;" vertex="1" parent="-r-d7jzyUZq8ZXCOeAmc-1">
          <mxGeometry x="387" y="15" width="253" height="30" as="geometry" />
        </mxCell>
        <mxCell id="-r-d7jzyUZq8ZXCOeAmc-80" style="edgeStyle=orthogonalEdgeStyle;rounded=0;orthogonalLoop=1;jettySize=auto;html=1;exitX=0.5;exitY=0;exitDx=0;exitDy=0;entryX=0.5;entryY=1;entryDx=0;entryDy=0;" edge="1" parent="-r-d7jzyUZq8ZXCOeAmc-1" source="-r-d7jzyUZq8ZXCOeAmc-39" target="-r-d7jzyUZq8ZXCOeAmc-55">
          <mxGeometry relative="1" as="geometry" />
        </mxCell>
        <mxCell id="-r-d7jzyUZq8ZXCOeAmc-81" value="" style="edgeStyle=orthogonalEdgeStyle;rounded=0;orthogonalLoop=1;jettySize=auto;html=1;" edge="1" parent="-r-d7jzyUZq8ZXCOeAmc-1" source="-r-d7jzyUZq8ZXCOeAmc-54" target="-r-d7jzyUZq8ZXCOeAmc-55">
          <mxGeometry relative="1" as="geometry" />
        </mxCell>
        <mxCell id="-r-d7jzyUZq8ZXCOeAmc-82" style="edgeStyle=orthogonalEdgeStyle;rounded=0;orthogonalLoop=1;jettySize=auto;html=1;exitX=0.5;exitY=0;exitDx=0;exitDy=0;entryX=0.5;entryY=1;entryDx=0;entryDy=0;" edge="1" parent="-r-d7jzyUZq8ZXCOeAmc-1" source="-r-d7jzyUZq8ZXCOeAmc-70" target="-r-d7jzyUZq8ZXCOeAmc-55">
          <mxGeometry relative="1" as="geometry" />
        </mxCell>
        <mxCell id="-r-d7jzyUZq8ZXCOeAmc-83" value="Concat" style="text;html=1;align=center;verticalAlign=middle;whiteSpace=wrap;rounded=0;fontStyle=1" vertex="1" parent="-r-d7jzyUZq8ZXCOeAmc-1">
          <mxGeometry x="530" y="120" width="60" height="30" as="geometry" />
        </mxCell>
        <mxCell id="-r-d7jzyUZq8ZXCOeAmc-84" value="&lt;b&gt;&lt;font style=&quot;font-size: 15px;&quot;&gt;q&lt;/font&gt;&lt;/b&gt;" style="rounded=0;whiteSpace=wrap;html=1;fillColor=#dae8fc;strokeColor=#6c8ebf;" vertex="1" parent="-r-d7jzyUZq8ZXCOeAmc-1">
          <mxGeometry x="160" y="479.5" width="170" height="30" as="geometry" />
        </mxCell>
        <mxCell id="-r-d7jzyUZq8ZXCOeAmc-85" value="&lt;b&gt;&lt;font style=&quot;font-size: 15px;&quot;&gt;k&lt;/font&gt;&lt;/b&gt;" style="rounded=0;whiteSpace=wrap;html=1;fillColor=#fad9d5;strokeColor=#ae4132;" vertex="1" parent="-r-d7jzyUZq8ZXCOeAmc-1">
          <mxGeometry x="410" y="480" width="97" height="30" as="geometry" />
        </mxCell>
        <mxCell id="-r-d7jzyUZq8ZXCOeAmc-86" value="&lt;font style=&quot;font-size: 15px;&quot;&gt;v&lt;/font&gt;" style="rounded=0;whiteSpace=wrap;html=1;fillColor=#d5e8d4;strokeColor=#82b366;" vertex="1" parent="-r-d7jzyUZq8ZXCOeAmc-1">
          <mxGeometry x="590" y="479.5" width="94" height="30" as="geometry" />
        </mxCell>
        <mxCell id="-r-d7jzyUZq8ZXCOeAmc-87" value="(bs,seq_len,dim_q*num_heads)" style="text;html=1;align=center;verticalAlign=middle;whiteSpace=wrap;rounded=0;" vertex="1" parent="-r-d7jzyUZq8ZXCOeAmc-1">
          <mxGeometry x="32.5" y="450" width="137.5" height="30" as="geometry" />
        </mxCell>
        <mxCell id="-r-d7jzyUZq8ZXCOeAmc-88" value="" style="endArrow=none;html=1;rounded=0;dashed=1;" edge="1" parent="-r-d7jzyUZq8ZXCOeAmc-1">
          <mxGeometry width="50" height="50" relative="1" as="geometry">
            <mxPoint x="244.7" y="510" as="sourcePoint" />
            <mxPoint x="244.7" y="480" as="targetPoint" />
          </mxGeometry>
        </mxCell>
        <mxCell id="-r-d7jzyUZq8ZXCOeAmc-89" value="" style="endArrow=none;html=1;rounded=0;dashed=1;" edge="1" parent="-r-d7jzyUZq8ZXCOeAmc-1">
          <mxGeometry width="50" height="50" relative="1" as="geometry">
            <mxPoint x="199.70000000000005" y="510" as="sourcePoint" />
            <mxPoint x="199.70000000000005" y="480" as="targetPoint" />
          </mxGeometry>
        </mxCell>
        <mxCell id="-r-d7jzyUZq8ZXCOeAmc-90" value="" style="endArrow=none;html=1;rounded=0;dashed=1;" edge="1" parent="-r-d7jzyUZq8ZXCOeAmc-1">
          <mxGeometry width="50" height="50" relative="1" as="geometry">
            <mxPoint x="280" y="510" as="sourcePoint" />
            <mxPoint x="280" y="480" as="targetPoint" />
          </mxGeometry>
        </mxCell>
        <mxCell id="-r-d7jzyUZq8ZXCOeAmc-91" value="" style="endArrow=none;html=1;rounded=0;dashed=1;" edge="1" parent="-r-d7jzyUZq8ZXCOeAmc-1">
          <mxGeometry width="50" height="50" relative="1" as="geometry">
            <mxPoint x="458.20000000000005" y="511" as="sourcePoint" />
            <mxPoint x="458.20000000000005" y="481" as="targetPoint" />
          </mxGeometry>
        </mxCell>
        <mxCell id="-r-d7jzyUZq8ZXCOeAmc-92" value="" style="endArrow=none;html=1;rounded=0;dashed=1;" edge="1" parent="-r-d7jzyUZq8ZXCOeAmc-1">
          <mxGeometry width="50" height="50" relative="1" as="geometry">
            <mxPoint x="636.7" y="510" as="sourcePoint" />
            <mxPoint x="636.7" y="480" as="targetPoint" />
          </mxGeometry>
        </mxCell>
        <mxCell id="-r-d7jzyUZq8ZXCOeAmc-196" style="edgeStyle=orthogonalEdgeStyle;rounded=0;orthogonalLoop=1;jettySize=auto;html=1;exitX=1;exitY=0.5;exitDx=0;exitDy=0;entryX=0;entryY=0.5;entryDx=0;entryDy=0;" edge="1" parent="1" source="-r-d7jzyUZq8ZXCOeAmc-185" target="-r-d7jzyUZq8ZXCOeAmc-188">
          <mxGeometry relative="1" as="geometry" />
        </mxCell>
        <mxCell id="-r-d7jzyUZq8ZXCOeAmc-185" value="&lt;b&gt;X&lt;/b&gt;" style="rounded=0;whiteSpace=wrap;html=1;fillColor=#b0e3e6;strokeColor=#0e8088;" vertex="1" parent="1">
          <mxGeometry x="210" y="2101" width="110" height="30" as="geometry" />
        </mxCell>
        <mxCell id="-r-d7jzyUZq8ZXCOeAmc-194" style="edgeStyle=orthogonalEdgeStyle;rounded=0;orthogonalLoop=1;jettySize=auto;html=1;exitX=1;exitY=0.5;exitDx=0;exitDy=0;entryX=0;entryY=0.5;entryDx=0;entryDy=0;" edge="1" parent="1" source="-r-d7jzyUZq8ZXCOeAmc-187" target="-r-d7jzyUZq8ZXCOeAmc-188">
          <mxGeometry relative="1" as="geometry" />
        </mxCell>
        <mxCell id="-r-d7jzyUZq8ZXCOeAmc-187" value="&lt;b&gt;W_c&lt;/b&gt;" style="rounded=0;whiteSpace=wrap;html=1;fillColor=#fff2cc;strokeColor=#d6b656;" vertex="1" parent="1">
          <mxGeometry x="260" y="1976" width="60" height="110" as="geometry" />
        </mxCell>
        <mxCell id="-r-d7jzyUZq8ZXCOeAmc-197" style="edgeStyle=orthogonalEdgeStyle;rounded=0;orthogonalLoop=1;jettySize=auto;html=1;exitX=1;exitY=0.5;exitDx=0;exitDy=0;entryX=0;entryY=0.5;entryDx=0;entryDy=0;" edge="1" parent="1" source="-r-d7jzyUZq8ZXCOeAmc-188" target="-r-d7jzyUZq8ZXCOeAmc-189">
          <mxGeometry relative="1" as="geometry" />
        </mxCell>
        <mxCell id="-r-d7jzyUZq8ZXCOeAmc-199" style="edgeStyle=orthogonalEdgeStyle;rounded=0;orthogonalLoop=1;jettySize=auto;html=1;exitX=1;exitY=0.5;exitDx=0;exitDy=0;" edge="1" parent="1" source="-r-d7jzyUZq8ZXCOeAmc-188" target="-r-d7jzyUZq8ZXCOeAmc-190">
          <mxGeometry relative="1" as="geometry" />
        </mxCell>
        <mxCell id="-r-d7jzyUZq8ZXCOeAmc-228" style="edgeStyle=orthogonalEdgeStyle;rounded=0;orthogonalLoop=1;jettySize=auto;html=1;exitX=1;exitY=0.5;exitDx=0;exitDy=0;entryX=0;entryY=0.5;entryDx=0;entryDy=0;" edge="1" parent="1" source="-r-d7jzyUZq8ZXCOeAmc-188" target="-r-d7jzyUZq8ZXCOeAmc-214">
          <mxGeometry relative="1" as="geometry" />
        </mxCell>
        <mxCell id="-r-d7jzyUZq8ZXCOeAmc-188" value="&lt;b&gt;C&lt;/b&gt;" style="rounded=0;whiteSpace=wrap;html=1;fillColor=#ffe6cc;strokeColor=#d79b00;" vertex="1" parent="1">
          <mxGeometry x="389" y="2056" width="60" height="30" as="geometry" />
        </mxCell>
        <mxCell id="-r-d7jzyUZq8ZXCOeAmc-198" style="edgeStyle=orthogonalEdgeStyle;rounded=0;orthogonalLoop=1;jettySize=auto;html=1;exitX=1;exitY=0.5;exitDx=0;exitDy=0;entryX=0;entryY=0.5;entryDx=0;entryDy=0;" edge="1" parent="1" source="-r-d7jzyUZq8ZXCOeAmc-189" target="-r-d7jzyUZq8ZXCOeAmc-191">
          <mxGeometry relative="1" as="geometry" />
        </mxCell>
        <mxCell id="-r-d7jzyUZq8ZXCOeAmc-189" value="&lt;b&gt;W_q&lt;/b&gt;" style="rounded=0;whiteSpace=wrap;html=1;fillColor=#dae8fc;strokeColor=#6c8ebf;" vertex="1" parent="1">
          <mxGeometry x="510" y="1950" width="70" height="60" as="geometry" />
        </mxCell>
        <mxCell id="-r-d7jzyUZq8ZXCOeAmc-200" style="edgeStyle=orthogonalEdgeStyle;rounded=0;orthogonalLoop=1;jettySize=auto;html=1;exitX=1;exitY=0.5;exitDx=0;exitDy=0;" edge="1" parent="1" source="-r-d7jzyUZq8ZXCOeAmc-190" target="-r-d7jzyUZq8ZXCOeAmc-192">
          <mxGeometry relative="1" as="geometry" />
        </mxCell>
        <mxCell id="-r-d7jzyUZq8ZXCOeAmc-190" value="&lt;b&gt;W_k&lt;/b&gt;" style="rounded=0;whiteSpace=wrap;html=1;fillColor=#f8cecc;strokeColor=#b85450;" vertex="1" parent="1">
          <mxGeometry x="510" y="2040" width="70" height="60" as="geometry" />
        </mxCell>
        <mxCell id="-r-d7jzyUZq8ZXCOeAmc-207" style="edgeStyle=orthogonalEdgeStyle;rounded=0;orthogonalLoop=1;jettySize=auto;html=1;exitX=1;exitY=0.5;exitDx=0;exitDy=0;entryX=0.5;entryY=0;entryDx=0;entryDy=0;" edge="1" parent="1" source="-r-d7jzyUZq8ZXCOeAmc-191">
          <mxGeometry relative="1" as="geometry">
            <mxPoint x="735" y="2010" as="targetPoint" />
          </mxGeometry>
        </mxCell>
        <mxCell id="-r-d7jzyUZq8ZXCOeAmc-191" value="&lt;b&gt;q&lt;/b&gt;" style="rounded=0;whiteSpace=wrap;html=1;fillColor=#dae8fc;strokeColor=#6c8ebf;" vertex="1" parent="1">
          <mxGeometry x="640" y="1965" width="60" height="30" as="geometry" />
        </mxCell>
        <mxCell id="-r-d7jzyUZq8ZXCOeAmc-208" style="edgeStyle=orthogonalEdgeStyle;rounded=0;orthogonalLoop=1;jettySize=auto;html=1;exitX=1;exitY=0.5;exitDx=0;exitDy=0;entryX=0.5;entryY=1;entryDx=0;entryDy=0;" edge="1" parent="1" source="-r-d7jzyUZq8ZXCOeAmc-192">
          <mxGeometry relative="1" as="geometry">
            <mxPoint x="735" y="2040" as="targetPoint" />
          </mxGeometry>
        </mxCell>
        <mxCell id="-r-d7jzyUZq8ZXCOeAmc-192" value="&lt;b&gt;k&lt;/b&gt;" style="rounded=0;whiteSpace=wrap;html=1;fillColor=#f8cecc;strokeColor=#b85450;" vertex="1" parent="1">
          <mxGeometry x="640" y="2055" width="60" height="30" as="geometry" />
        </mxCell>
        <mxCell id="-r-d7jzyUZq8ZXCOeAmc-201" value="&lt;b&gt;&lt;i&gt;&lt;font style=&quot;font-size: 15px;&quot;&gt;Down projection&lt;/font&gt;&lt;/i&gt;&lt;/b&gt;" style="text;html=1;align=center;verticalAlign=middle;whiteSpace=wrap;rounded=0;" vertex="1" parent="1">
          <mxGeometry x="360" y="1890" width="150" height="30" as="geometry" />
        </mxCell>
        <mxCell id="-r-d7jzyUZq8ZXCOeAmc-202" value="&lt;b&gt;&lt;i&gt;&lt;font style=&quot;font-size: 15px;&quot;&gt;attention&lt;/font&gt;&lt;/i&gt;&lt;/b&gt;" style="text;html=1;align=center;verticalAlign=middle;whiteSpace=wrap;rounded=0;" vertex="1" parent="1">
          <mxGeometry x="620" y="1890" width="150" height="30" as="geometry" />
        </mxCell>
        <mxCell id="-r-d7jzyUZq8ZXCOeAmc-211" style="edgeStyle=orthogonalEdgeStyle;rounded=0;orthogonalLoop=1;jettySize=auto;html=1;exitX=1;exitY=0.5;exitDx=0;exitDy=0;" edge="1" parent="1">
          <mxGeometry relative="1" as="geometry">
            <mxPoint x="810" y="2025.5882352941176" as="targetPoint" />
            <mxPoint x="750.0000000000264" y="2025" as="sourcePoint" />
          </mxGeometry>
        </mxCell>
        <mxCell id="-r-d7jzyUZq8ZXCOeAmc-209" style="edgeStyle=orthogonalEdgeStyle;rounded=0;orthogonalLoop=1;jettySize=auto;html=1;exitX=0.5;exitY=1;exitDx=0;exitDy=0;" edge="1" parent="1" source="-r-d7jzyUZq8ZXCOeAmc-202" target="-r-d7jzyUZq8ZXCOeAmc-202">
          <mxGeometry relative="1" as="geometry" />
        </mxCell>
        <mxCell id="-r-d7jzyUZq8ZXCOeAmc-212" value="" style="shape=sumEllipse;perimeter=ellipsePerimeter;whiteSpace=wrap;html=1;backgroundOutline=1;" vertex="1" parent="1">
          <mxGeometry x="720" y="2010" width="30" height="30" as="geometry" />
        </mxCell>
        <mxCell id="-r-d7jzyUZq8ZXCOeAmc-223" style="edgeStyle=orthogonalEdgeStyle;rounded=0;orthogonalLoop=1;jettySize=auto;html=1;exitX=1;exitY=0.5;exitDx=0;exitDy=0;" edge="1" parent="1" source="-r-d7jzyUZq8ZXCOeAmc-213">
          <mxGeometry relative="1" as="geometry">
            <mxPoint x="880" y="2025.5882352941176" as="targetPoint" />
          </mxGeometry>
        </mxCell>
        <mxCell id="-r-d7jzyUZq8ZXCOeAmc-213" value="" style="shape=sumEllipse;perimeter=ellipsePerimeter;whiteSpace=wrap;html=1;backgroundOutline=1;" vertex="1" parent="1">
          <mxGeometry x="810" y="2010" width="30" height="30" as="geometry" />
        </mxCell>
        <mxCell id="-r-d7jzyUZq8ZXCOeAmc-217" style="edgeStyle=orthogonalEdgeStyle;rounded=0;orthogonalLoop=1;jettySize=auto;html=1;exitX=1;exitY=0.5;exitDx=0;exitDy=0;entryX=0.5;entryY=1;entryDx=0;entryDy=0;" edge="1" parent="1" source="-r-d7jzyUZq8ZXCOeAmc-218" target="-r-d7jzyUZq8ZXCOeAmc-213">
          <mxGeometry relative="1" as="geometry" />
        </mxCell>
        <mxCell id="-r-d7jzyUZq8ZXCOeAmc-220" style="edgeStyle=orthogonalEdgeStyle;rounded=0;orthogonalLoop=1;jettySize=auto;html=1;exitX=1;exitY=0.5;exitDx=0;exitDy=0;entryX=0;entryY=0.5;entryDx=0;entryDy=0;" edge="1" parent="1" source="-r-d7jzyUZq8ZXCOeAmc-214" target="-r-d7jzyUZq8ZXCOeAmc-218">
          <mxGeometry relative="1" as="geometry" />
        </mxCell>
        <mxCell id="-r-d7jzyUZq8ZXCOeAmc-214" value="&lt;b&gt;W_v&lt;/b&gt;" style="rounded=0;whiteSpace=wrap;html=1;fillColor=#d5e8d4;strokeColor=#82b366;" vertex="1" parent="1">
          <mxGeometry x="510" y="2120" width="70" height="60" as="geometry" />
        </mxCell>
        <mxCell id="-r-d7jzyUZq8ZXCOeAmc-218" value="&lt;b&gt;V&lt;/b&gt;" style="rounded=0;whiteSpace=wrap;html=1;fillColor=#d5e8d4;strokeColor=#82b366;" vertex="1" parent="1">
          <mxGeometry x="640" y="2135" width="60" height="30" as="geometry" />
        </mxCell>
        <mxCell id="-r-d7jzyUZq8ZXCOeAmc-222" value="" style="endArrow=none;html=1;rounded=0;dashed=1;strokeWidth=3;" edge="1" parent="1">
          <mxGeometry width="50" height="50" relative="1" as="geometry">
            <mxPoint x="600" y="2230" as="sourcePoint" />
            <mxPoint x="600" y="1860" as="targetPoint" />
          </mxGeometry>
        </mxCell>
        <mxCell id="-r-d7jzyUZq8ZXCOeAmc-225" style="edgeStyle=orthogonalEdgeStyle;rounded=0;orthogonalLoop=1;jettySize=auto;html=1;exitX=1;exitY=0.5;exitDx=0;exitDy=0;" edge="1" parent="1" source="-r-d7jzyUZq8ZXCOeAmc-224">
          <mxGeometry relative="1" as="geometry">
            <mxPoint x="990" y="2025.5882352941176" as="targetPoint" />
          </mxGeometry>
        </mxCell>
        <mxCell id="-r-d7jzyUZq8ZXCOeAmc-224" value="&lt;b&gt;W_o&lt;/b&gt;" style="rounded=0;whiteSpace=wrap;html=1;fillColor=#fad7ac;strokeColor=#b46504;" vertex="1" parent="1">
          <mxGeometry x="880" y="1995" width="70" height="60" as="geometry" />
        </mxCell>
        <mxCell id="-r-d7jzyUZq8ZXCOeAmc-226" value="&lt;b&gt;o&lt;/b&gt;" style="rounded=0;whiteSpace=wrap;html=1;fillColor=#d5e8d4;strokeColor=#82b366;" vertex="1" parent="1">
          <mxGeometry x="990" y="2010" width="60" height="30" as="geometry" />
        </mxCell>
      </root>
    </mxGraphModel>
  </diagram>
</mxfile>
